{"title":"Cloverfield 2008 BRRip Xvid AC3-COPYxRiGHT*THC* [bitxtre.me]","uid":6299622,"size":1464023365,"categoryP":"video","categoryS":"movies","magnet":"?xt=urn:btih:30505de2e3055b49d82689a610bcb8466de31931&amp;dn=Cloverfield+2008+BRRip+Xvid+AC3-COPYxRiGHT%2ATHC%2A+%5Bbitxtre.me%5D&amp;tr=udp%3A%2F%2Ftracker.openbittorrent.com%3A80&amp;tr=udp%3A%2F%2Fopen.demonii.com%3A1337&amp;tr=udp%3A%2F%2Ftracker.coppersurfer.tk%3A6969&amp;tr=udp%3A%2F%2Fexodus.desync.com%3A6969","seeders":0,"leechers":0,"uploader":"Kill3rK","files":3,"time":1302112729,"description":"                        Clean Scene Releases and no fakes\n    \n\n                              &lt;a href=&quot; https://bitxtre.me/&quot; rel=&quot;nofollow&quot; target=&quot;_NEW&quot;&gt; https://bitxtre.me/&lt;/a&gt;\n\n                             Secure SSL Downloading\n-----------------------------------------------------------------------------------\n\n\n\nRipper ...........: COPYxRiGHT                                                            \nVideo Codec.......: Xvid                                        \nAudio Codec.......:AC3                                          \nAudio Bitrate.....:448                                              \nSubtitles.........:NIL                                                \nResolution...... 720 x 404                                    \nLanguage..........:ENGLISH\nIMDB Rating.......:7.4/10                            \nIMDB URL..........: http://www.imdb.com/title/tt1060277/\n\nGeneral\nComplete name                    : C:\\uploads\\Cloverfield.BRRip.Xvid.AC3\\Cloverfield.2009.BRRip.Xvid.AC3.avi\nFormat                           : AVI\nFormat/Info                      : Audio Video Interleave\nFile size                        : 1.35 GiB\nDuration                         : 1h 17mn\nOverall bit rate                 : 2 497 Kbps\nWriting library                  : VirtualDub build 32842/release\n\nVideo\nID                               : 0\nFormat                           : MPEG-4 Visual\nFormat profile                   : Advanced Simple@L5\nFormat settings, BVOP            : 2\nFormat settings, QPel            : No\nFormat settings, GMC             : No warppoints\nFormat settings, Matrix          : Default (H.263)\nCodec ID                         : XVID\nCodec ID/Hint                    : XviD\nDuration                         : 1h 17mn\nBit rate                         : 2 040 Kbps\nWidth                            : 720 pixels\nHeight                           : 404 pixels\nDisplay aspect ratio             : 16:9\nFrame rate                       : 23.976 fps\nColor space                      : YUV\nChroma subsampling               : 4:2:0\nBit depth                        : 8 bits\nScan type                        : Progressive\nCompression mode                 : Lossy\nBits/(Pixel*Frame)               : 0.293\nStream size                      : 1.10 GiB (82%)\nWriting library                  : XviD 63\n\nAudio\nID                               : 1\nFormat                           : AC-3\nFormat/Info                      : Audio Coding 3\nMode extension                   : CM (complete main)\nCodec ID                         : 2000\nDuration                         : 1h 17mn\nBit rate mode                    : Constant\nBit rate                         : 448 Kbps\nChannel(s)                       : 6 channels\nChannel positions                : Front: L C R, Side: L R, LFE\nSampling rate                    : 48.0 KHz\nBit depth                        : 16 bits\nCompression mode                 : Lossy\nStream size                      : 248 MiB (18%)\nAlignment                        : Aligned on interleaves\nInterleave, duration             : 42 ms (1.00 video frame)\nInterleave, preload duration     : 512 ms\n\nSource: Own\n\n\nCloverfield follows five New Yorkers from the perspective of a hand-held video camera. The movie is exactly the length of a DV Tape and a sub-plot is established by showing bits and pieces of video previously recorded on the tape that is being recorded over.The US Defense Department finds the videotape in the former Central Park. The footage shows a group of friends celebrating a surprise farewell party in the apartment of Rob Hawkins in Lower Manhattan. ","torrent":{"xt":"urn:btih:30505de2e3055b49d82689a610bcb8466de31931","amp;dn":"Cloverfield+2008+BRRip+Xvid+AC3-COPYxRiGHT%2ATHC%2A+%5Bbitxtre.me%5D","amp;tr":["udp%3A%2F%2Ftracker.openbittorrent.com%3A80","udp%3A%2F%2Fopen.demonii.com%3A1337","udp%3A%2F%2Ftracker.coppersurfer.tk%3A6969","udp%3A%2F%2Fexodus.desync.com%3A6969"],"infoHash":"30505de2e3055b49d82689a610bcb8466de31931","infoHashBuffer":{"type":"Buffer","data":[48,80,93,226,227,5,91,73,216,38,137,166,16,188,184,70,109,227,25,49]},"announce":[],"urlList":[]}}